# AST/ASF file generated using VICON BodyLanguage
# -----------------------------------------------
:version 1.10
:name VICON
:units
  mass 1.0
  length 0.45
  angle deg
:documentation
   .ast/.asf automatically generated from VICON data using
   VICON BodyBuilder and BodyLanguage model FoxedUp or BRILLIANT.MOD
:root
   order TX TY TZ RX RY RZ
   axis XYZ
   position 0 0 0  
   orientation 0 0 0 
:bonedata
  begin
     id 1 
     name lhipjoint
     direction 0.603808 -0.713975 0.35448 
     length 2.2025 
     axis 0 0 0  XYZ
  end
  begin
     id 2 
     name lfemur
     direction 0.34202 -0.939693 0  
     length 6.55877  
     axis 0 0 20  XYZ
    dof rx ry rz
    limits (-160.0 20.0)
           (-70.0 70.0)
           (-60.0 70.0)
  end
  begin
     id 3 
     name ltibia
     direction 0.34202 -0.939693 0   
     length 6.80302   
     axis 0 0 20   XYZ
    dof rx
    limits (-10.0 170.0)
  end
  begin
     id 4 
     name lfoot
     direction 0.091848 -0.25235 0.963267   
     length 2.03446   
     axis -90 7.62852e-016 20   XYZ
    dof rx rz
    limits (-45.0 90.0)
           (-70.0 20.0)
  end
  begin
     id 5 
     name ltoes
     direction 1.53608e-011 -4.21925e-011 1   
     length 1.02033   
     axis -90 7.62852e-016 20   XYZ
    dof rx
    limits (-90.0 20.0)
  end
  begin
     id 6 
     name rhipjoint
     direction -0.587285 -0.724947 0.359928   
     length 2.16916  
     axis 0 0 0  XYZ 
  end
  begin
     id 7 
     name rfemur
     direction -0.34202 -0.939693 0   
     length 6.43173   
     axis 0 0 -20   XYZ
    dof rx ry rz
    limits (-160.0 20.0)
           (-70.0 70.0)
           (-70.0 60.0)
  end
  begin
     id 8 
     name rtibia
     direction -0.34202 -0.939693 0   
     length 6.70662   
     axis 0 0 -20   XYZ
    dof rx
    limits (-10.0 170.0)
 end
 begin
     id 9 
     name rfoot
     direction -0.11854 -0.325686 0.938018   
     length 2.0773  
     axis -90 -7.62852e-016 -20   XYZ
    dof rx rz
    limits (-45.0 90.0)
           (-20.0 70.0)
  end
  begin
     id 10 
     name rtoes
     direction -1.53547e-011 -4.21838e-011 1   
     length 1.03267   
     axis -90 -7.62852e-016 -20   XYZ
    dof rx
    limits (-90.0 20.0)
  end
  begin
     id 11 
     name lowerback
     direction -0.0286554 0.999539 0.0100613   
     length 2.08751   
     axis 0 0 0   XYZ
    dof rx ry rz
    limits (-20.0 45.0)
           (-30.0 30.0)
           (-30.0 30.0)
  end
  begin
     id 12 
     name upperback
     direction 0.0227093 0.999705 -0.00860929   
     length 2.08517   
     axis 0 0 0   XYZ
    dof rx ry rz
    limits (-20.0 45.0)
           (-30.0 30.0)
           (-30.0 30.0)
  end
  begin
     id 13 
     name thorax
     direction 0.0351627 0.999285 -0.013892   
     length 2.08412   
     axis 0 0 0   XYZ
    dof rx ry rz
    limits (-20.0 45.0)
           (-30.0 30.0)
           (-30.0 30.0)
  end
  begin
     id 14 
     name lowerneck
     direction -0.0696283 0.997344 0.0213922   
     length 1.44164   
     axis 0 0 0   XYZ
    dof rx ry rz
    limits (-20.0 45.0)
           (-30.0 30.0)
           (-30.0 30.0)
  end
  begin
     id 15 
     name upperneck
     direction 0.0531 0.990412 -0.127531   
     length 1.45022   
     axis 0 0 0   XYZ
    dof rx ry rz
    limits (-20.0 45.0)
           (-30.0 30.0)
           (-30.0 30.0)
  end
  begin
     id 16
     name head
     direction 0.0188154 0.998548 -0.0504727  
     length 1.45845  
     axis 0 0 0   XYZ
    dof rx ry rz
    limits (-20.0 45.0)
           (-30.0 30.0)
           (-30.0 30.0)
  end
  begin
     id 17 
     name lclavicle
     direction 0.961559 0.260051 0.088188  
     length 2.86057  
     axis 0 0 0   XYZ
    dof ry rz
    limits (-20.0 10.0)
           (0.0 20.0)
  end
  begin
     id 18 
     name lhumerus
     direction 1 -4.48959e-011 2.88185e-027   
     length 4.36901   
     axis 180 -30 -90   XYZ
    dof rx ry rz
    limits (-60.0 90.0)
           (-90.0 90.0)
           (-90.0 90.0)
  end
  begin
     id 19
     name lradius
     direction 1 -4.48965e-011 -3.92618e-028   
     length 3.21737   
     axis 180 -30 -90   XYZ
    dof rx
    limits (-10.0 170.0)
  end
  begin
     id 20
     name lwrist
     direction 1 -4.49037e-011 2.57246e-027   
     length 1.60869   
     axis -1.61769e-015 90 90   XYZ
    dof ry
    limits (-180.0 0.0)
 end
  begin
     id 21 
     name lhand
     direction 1 -4.48807e-011 5.12958e-027   
     length 0.564313   
     axis -3.27988e-015 90 90   XYZ
    dof rx rz
    limits (-90.0 90.0)
           (-45.0 45.0)
  end
  begin
     id 22 
     name lfingers
     direction 1 -4.48879e-011 1.02687e-026   
     length 0.454963   
     axis -6.5598e-015 90 90   XYZ
    dof rx
    limits (0.0 90.0)
  end
  begin
     id 23
     name lthumb
     direction 0.707107 -6.3475e-011 0.707107   
     length 0.653239   
     axis -90 45 2.19363e-014   XYZ
    dof rx rz
    limits (-45.0 45.0)
           (-45.0 45.0)
  end
  begin
     id 24 
     name rclavicle
     direction -0.954677 0.253915 0.155304   
     length 3.11497  
     axis 0 0 0   XYZ 
    dof ry rz
    limits (-10.0 20.0)
           (-20.0 0.0)
  end
  begin
     id 25 
     name rhumerus
     direction -1 -4.48958e-011 -8.20169e-028  
     length 4.34118   
     axis 180 30 90   XYZ
    dof rx ry rz
    limits (-90.0 60.0)
           (-90.0 90.0)
           (-90.0 90.0)
  end
  begin
     id 26 
     name rradius
     direction -1 -4.48978e-011 1.5676e-027   
     length 3.09531   
     axis 180 30 90   XYZ
    dof rx
    limits (-10.0 170.0)
  end
  begin
     id 27 
     name rwrist
     direction -1 -4.49001e-011 2.57123e-027   
     length 1.54765   
     axis -1.61769e-015 -90 -90   XYZ
    dof ry
    limits (-180.0 0.0)
  end
  begin
     id 28
     name rhand
     direction -1 -4.48847e-011 5.13225e-027   
     length 0.597446   
     axis -3.27988e-015 -90 -90   XYZ
    dof rx rz
    limits (-90.0 90.0)
           (-45.0 45.0)
  end
  begin
     id 29
     name rfingers
     direction -1 -4.49094e-011 1.02974e-026   
     length 0.481677   
     axis -6.5598e-015 -90 -90   XYZ
    dof rx
    limits (0.0 90.0)
  end
  begin
     id 30
     name rthumb
     direction -0.707107 -6.34859e-011 0.707107   
     length 0.691594   
     axis -90 -45 -2.19363e-014   XYZ
    dof rx rz
    limits (-45.0 45.0)
           (-45.0 45.0)
  end
:hierarchy
  begin
    root lhipjoint rhipjoint lowerback
    lhipjoint lfemur
    lfemur ltibia
    ltibia lfoot
    lfoot ltoes
    rhipjoint rfemur
    rfemur rtibia
    rtibia rfoot
    rfoot rtoes
    lowerback upperback
    upperback thorax
    thorax lowerneck lclavicle rclavicle
    lowerneck upperneck
    upperneck head
    lclavicle lhumerus
    lhumerus lradius
    lradius lwrist
    lwrist lhand lthumb
    lhand lfingers
    rclavicle rhumerus
    rhumerus rradius
    rradius rwrist
    rwrist rhand rthumb
    rhand rfingers
  end

#!OML:ASF I:\Acrobat_Osman\acrobat\cartwheel_test 2\Patient 1\Session 1\acrobat.ASF
:FULLY-SPECIFIED
:DEGREES
1014
root 5.73767 16.6075 -10.8981 3.08088 -1.77108 2.31467
lowerback 2.31556 -0.311815 -3.17128
upperback 6.64368 -0.437782 1.19674
thorax 5.62937 -0.421821 3.00914
lowerneck -13.0575 -3.30805 -7.06778
upperneck 33.8985 -2.31797 -1.61518
head 13.7941 -2.12085 0.231238
rclavicle -2.08724e-014 -1.35174e-014
rhumerus -49.4454 -20.5954 32.2665
rradius 26.8359
rwrist -6.93428
rhand -31.0343 20.9573
rfingers 7.12502
rthumb -4.31623 -8.97871
lclavicle -2.08724e-014 -1.35174e-014
lhumerus -51.4923 10.3959 -18.6199
lradius 28.4517
lwrist 48.3862
lhand -25.1266 57.5123
lfingers 7.12502
lthumb 1.38927 447.488
rfemur -18.6088 3.892 22.8087
rtibia 40.0802
rfoot -5.45804 -12.0722
rtoes -26.1228
lfemur -199.216 172.636 -204.764
ltibia 41.7328
lfoot 0.984961 -4.49997
ltoes -22.1637
1015
root 5.72722 16.6239 -10.945 2.89426 -1.60395 2.39917
lowerback 2.28582 -0.254562 -3.28235
upperback 6.78196 -0.354711 1.13245
thorax 5.78837 -0.389267 3.00679
lowerneck -13.0034 -3.47897 -7.17762
upperneck 33.5742 -2.67826 -1.23517
head 13.6563 -2.23236 0.350655
rclavicle 4.37326e-015 2.78299e-015
rhumerus -43.1195 -21.7576 36.0913
rradius 27.4407
rwrist -6.01374
rhand -32.5948 19.1863
rfingers 7.12502
rthumb -5.82297 -10.7137
lclavicle 4.37326e-015 2.78299e-015
lhumerus -44.8984 10.0549 -23.6887
lradius 28.8693
lwrist 47.0779
lhand -23.6296 56.7882
lfingers 7.12502
lthumb 2.83505 446.749
rfemur -18.2089 4.95007 22.6871
rtibia 40.0557
rfoot -5.65128 -12.4126
rtoes -25.8255
lfemur -198.861 173.142 -204.946
ltibia 41.7113
lfoot 1.05425 -4.90854
ltoes -23.447
1016
root 5.7158 16.5993 -10.9966 2.56307 -1.49029 2.59455
lowerback 2.22579 -0.0397469 -3.35693
upperback 6.54694 -0.04844 0.732303
thorax 5.5463 -0.219979 2.63899
lowerneck -11.5854 -3.61221 -6.39992
upperneck 33.383 -3.29138 -0.997423
head 13.2572 -2.3675 0.247829
rclavicle -2.5842e-015 -5.1684e-015
rhumerus -36.0841 -23.7006 39.2668
rradius 27.7941
rwrist -5.29034
rhand -32.6271 19.6564
rfingers 7.12502
rthumb -5.85417 -10.2427
lclavicle -2.5842e-015 -5.1684e-015
lhumerus -36.4487 9.99624 -28.2418
lradius 28.9567
lwrist 45.2958
lhand -22.718 56.2376
lfingers 7.12502
lthumb 3.71538 446.185
rfemur -17.7624 5.55668 22.3843
rtibia 40.1328
rfoot -5.57604 -12.3892
rtoes -24.3321
lfemur -198.332 173.381 -205.193
ltibia 41.6531
lfoot 1.68274 -4.03216
ltoes -24.2888
1017
root 5.70872 16.5404 -11.0476 2.10182 -1.36686 2.74007
lowerback 3.10632 2.16072 0.591783
upperback 4.24269 2.95262 -3.14781
thorax 2.82647 1.55131 -3.59132
lowerneck -4.57507 -5.28891 -0.766447
upperneck 33.2268 -7.75122 0.930023
head 11.652 -3.46826 -0.366606
rclavicle -2.67365e-014 4.49253e-014
rhumerus -33.2892 -18.7069 40.6942
rradius 28.771
rwrist -5.74657
rhand -30.7055 17.5822
rfingers 7.12502
rthumb -3.99878 -12.36
lclavicle -2.67365e-014 4.49253e-014
lhumerus -17.4757 11.2123 -32.3687
lradius 29.2906
lwrist 45.8151
lhand -23.2345 57.1787
lfingers 7.12502
lthumb 3.21659 447.134
rfemur -17.196 5.39745 22.1068
rtibia 40.2095
rfoot -5.50477 -11.6989
rtoes -22.1095
lfemur -197.646 173.335 -205.337
ltibia 41.5673
lfoot 2.05129 -3.50055
ltoes -24.2761
1018
root 5.7044 16.4509 -11.0934 1.54825 -1.26604 2.65938
lowerback 2.39886 0.941884 -2.12707
upperback 4.48713 1.27497 -0.946772
thorax 3.2454 0.584904 0.22267
lowerneck -4.8665 -4.19741 -3.21496
upperneck 33.6949 -5.33281 -0.59657
head 11.9066 -2.85654 -0.259764
rclavicle 8.80088e-015 2.84355e-015
rhumerus -18.6737 -31.5331 39.9088
rradius 28.778
rwrist -3.29942
rhand -30.7112 19.5025
rfingers 7.12502
rthumb -4.00427 -10.4396
lclavicle 8.80088e-015 2.84355e-015
lhumerus -13.6138 12.7489 -34.4456
lradius 29.9091
lwrist 44.6507
lhand -23.5161 57.6295
lfingers 7.12502
lthumb 2.94468 447.589
rfemur -16.4565 5.08528 22.111
rtibia 40.2721
rfoot -5.5667 -11.0885
rtoes -20.9148
lfemur -196.859 173.155 -205.26
ltibia 41.5168
lfoot 1.65823 -3.23717
ltoes -24.8276
1019
root 5.69926 16.323 -11.1388 1.02929 -1.10813 2.47932
lowerback 1.87793 -0.319911 -4.85521
upperback 4.53149 -0.446791 1.3541
thorax 3.68282 -0.420757 4.12036
lowerneck -5.30965 -3.13137 -5.5534
upperneck 34.1406 -2.8539 -2.29452
head 12.1917 -2.24872 -0.228204
rclavicle 5.76476e-015 0
rhumerus -0.257252 -42.6801 31.613
rradius 29.6149
rwrist -3.00202
rhand -30.3885 20.2859
rfingers 7.12502
rthumb -3.69264 -9.66182
lclavicle 5.76476e-015 0
lhumerus -9.27046 16.0614 -34.6628
lradius 31.3844
lwrist 43.7398
lhand -24.6056 56.8676
lfingers 7.12502
lthumb 1.89252 446.839
rfemur -15.7413 4.83516 22.257
rtibia 40.3799
rfoot -6.00573 -10.2371
rtoes -20.5272
lfemur -196.051 172.883 -205.119
ltibia 41.5498
lfoot -0.138705 -2.6039
ltoes -25.9039
1020
root 5.69193 16.157 -11.1939 0.539568 -0.883927 2.3611
lowerback 1.75036 -1.64722 -7.22115
upperback 4.3507 -2.27547 3.55279
thorax 3.99964 -1.48011 7.76155
lowerneck -6.01945 -2.05602 -8.94308
upperneck 34.5643 -0.284611 -3.32812
head 12.5683 -1.68314 0.246871
rclavicle 1.74931e-014 -8.74653e-015
rhumerus 23.4311 -48.0029 15.6544
rradius 30.6864
rwrist -4.59821
rhand -30.7443 21.5895
rfingers 7.12502
rthumb -4.03625 -8.35203
lclavicle 1.74931e-014 -8.74653e-015
lhumerus -4.74536 19.4441 -32.4759
lradius 33.8873
lwrist 43.5135
lhand -23.4102 58.2482
lfingers 7.12502
lthumb 3.04692 448.206
rfemur -15.1371 4.30452 22.3655
rtibia 40.6349
rfoot -7.70747 -8.35752
rtoes -19.505
lfemur -195.162 172.451 -205.009
ltibia 41.6641
lfoot -3.6492 -2.27777
ltoes -26.1155
1021
root 5.68362 15.971 -11.2613 0.00514377 -0.681443 2.27519
lowerback 1.97286 -2.73006 -9.00551
upperback 3.88568 -3.8023 5.21678
thorax 3.95999 -2.34354 10.5963
lowerneck -5.98278 -1.12432 -11.8412
upperneck 34.7192 1.80226 -3.99153
head 12.6472 -1.22508 0.728941
rclavicle -6.16232e-014 9.54166e-015
rhumerus 45.0112 -45.6324 -0.133556
rradius 32.0315
rwrist -7.0456
rhand -30.0057 21.8438
rfingers 7.12502
rthumb -3.32292 -8.1101
lclavicle -6.16232e-014 9.54166e-015
lhumerus 1.07607 21.9924 -27.914
lradius 36.9028
lwrist 44.5163
lhand -23.2473 52.9727
lfingers 7.12502
lthumb 3.2043 442.928
rfemur -14.5523 3.60767 22.4675
rtibia 41.1268
rfoot -11.0738 -6.1304
rtoes -16.5333
lfemur -194.237 172.335 -204.859
ltibia 41.8206
lfoot -7.87361 -2.03162
ltoes -26.0007
1022
root 5.67759 15.7869 -11.3402 -0.536238 -0.517016 2.33126
lowerback 2.00938 -3.20495 -9.59985
upperback 3.61585 -4.46793 5.77579
thorax 3.93237 -2.70634 11.5576
lowerneck -5.89856 -0.690423 -13.1806
upperneck 34.9646 2.74349 -4.20749
head 12.7347 -1.02487 0.976502
rclavicle -7.11649e-014 4.77083e-014
rhumerus 58.2717 -39.7458 -10.19
rradius 33.5156
rwrist -9.24808
rhand -27.2326 23.0949
rfingers 7.12502
rthumb -0.644704 -6.88386
lclavicle -7.11649e-014 4.77083e-014
lhumerus 9.94105 25.4984 -20.6153
lradius 39.3761
lwrist 44.8303
lhand -21.6429 52.085
lfingers 7.12502
lthumb 4.75356 442.012
rfemur -14.1097 3.10618 22.4273
rtibia 41.8739
rfoot -14.7017 -4.32873
rtoes -15.8439
lfemur -193.493 172.606 -204.907
ltibia 41.9892
lfoot -11.6558 -1.11469
ltoes -26.6901
1023
root 5.67408 15.6121 -11.4287 -1.1178 -0.421312 2.51763
lowerback 2.16008 -3.32234 -9.90187
upperback 3.4723 -4.64495 5.90128
thorax 3.78426 -2.79501 11.8856
lowerneck -6.00886 -0.567289 -13.5314
upperneck 35.4827 3.14952 -4.50426
head 12.9905 -0.966081 0.961003
rclavicle 5.94366e-014 -1.43125e-014
rhumerus 66.5374 -32.7109 -16.8641
rradius 34.9451
rwrist -9.88633
rhand -24.9711 24.334
rfingers 7.12502
rthumb 1.53948 -5.64019
lclavicle 5.94366e-014 -1.43125e-014
lhumerus 20.6368 27.7656 -10.779
lradius 41.3102
lwrist 45.8484
lhand -20.8543 50.9439
lfingers 7.12502
lthumb 5.51505 440.852
rfemur -13.9168 2.98504 22.2865
rtibia 42.7988
rfoot -18.0574 -3.37332
rtoes -14.8435
lfemur -192.939 172.924 -205.174
ltibia 42.1801
lfoot -14.7118 0.169647
ltoes -28.1641
1024
root 5.67195 15.4497 -11.5244 -1.62488 -0.374457 2.61635
lowerback 2.14776 -3.17814 -9.82213
upperback 3.60498 -4.44264 5.72132
thorax 3.85098 -2.6947 11.639
lowerneck -6.63079 -0.742499 -13.1575
upperneck 36.2565 3.07235 -4.66074
head 13.4775 -1.0338 0.81972
rclavicle 8.5875e-014 -1.59028e-014
rhumerus 71.559 -25.6186 -22.0677
rradius 36.236
rwrist -9.89005
rhand -24.6944 26.0238
rfingers 7.12502
rthumb 1.80672 -3.9483
lclavicle 8.5875e-014 -1.59028e-014
lhumerus 32.5669 28.6993 1.33471
lradius 42.1166
lwrist 45.0693
lhand -19.7332 48.8083
lfingers 7.12502
lthumb 6.59738 438.686
rfemur -14.0427 3.16518 22.2971
rtibia 43.7852
rfoot -20.8878 -3.19672
rtoes -13.449
lfemur -192.638 173.508 -205.37
ltibia 42.4419
lfoot -17.3628 1.68775
ltoes -29.6339
1025
root 5.67004 15.311 -11.621 -1.9224 -0.278198 2.60604
lowerback 1.8512 -2.98875 -9.56407
upperback 3.9227 -4.15321 5.47444
thorax 4.23365 -2.56943 11.195
lowerneck -7.812 -1.06576 -12.704
upperneck 37.1739 2.795 -4.58336
head 14.1641 -1.1639 0.727142
rclavicle -7.95139e-015 1.59028e-014
rhumerus 74.1992 -18.4322 -25.8672
rradius 37.2527
rwrist -11.297
rhand -25.7677 26.833
rfingers 7.12502
rthumb 0.770085 -3.14535
lclavicle -7.95139e-015 1.59028e-014
lhumerus 43.2107 26.9343 13.4625
lradius 42.5221
lwrist 43.8056
lhand -19.2918 45.8961
lfingers 7.12502
lthumb 7.02345 435.76
rfemur -14.4551 3.36909 22.3957
rtibia 44.7237
rfoot -23.2287 -3.31616
rtoes -12.8617
lfemur -192.66 174.362 -205.483
ltibia 42.8084
lfoot -19.3102 3.50534
ltoes -31.6302
1026
root 5.6649 15.1951 -11.7128 -2.06317 -0.220029 2.52586
lowerback 1.50648 -2.75413 -9.16216
upperback 4.11622 -3.79644 5.10381
thorax 4.47458 -2.38334 10.5355
lowerneck -8.55521 -1.39807 -11.9841
upperneck 37.8757 2.30175 -4.46344
head 14.6678 -1.31563 0.574099
rclavicle -4.94974e-014 1.59028e-014
rhumerus 75.703 -10.8793 -30.1938
rradius 36.8737
rwrist -12.591
rhand -26.7366 27.4693
rfingers 7.12502
rthumb -0.165716 -2.5104
lclavicle -4.94974e-014 1.59028e-014
lhumerus 50.4746 21.7839 21.9896
lradius 42.8133
lwrist 45.0848
lhand -20.1316 47.3298
lfingers 7.12502
lthumb 6.21276 437.219
rfemur -14.9466 3.47518 22.4979
rtibia 45.5217
rfoot -25.3218 -3.13174
rtoes -12.9001
lfemur -192.894 175.01 -205.502
ltibia 43.2643
lfoot -20.9064 4.96358
ltoes -32.6384
